<?xml version="1.0" standalone="no"?>
<!DOCTYPE svg PUBLIC "-//W3C//DTD SVG 20010904//EN"
 "http://www.w3.org/TR/2001/REC-SVG-20010904/DTD/svg10.dtd">
<svg version="1.0" xmlns="http://www.w3.org/2000/svg"
 width="512.000000pt" height="512.000000pt" viewBox="0 0 512.000000 512.000000"
 preserveAspectRatio="xMidYMid meet">
<metadata>
Created by potrace 1.16, written by Peter Selinger 2001-2019
</metadata>
<g transform="translate(0.000000,512.000000) scale(0.100000,-0.100000)"
fill="#000000" stroke="none">
<path d="M29 5091 l-29 -29 0 -389 0 -388 862 -862 863 -863 -250 -250 -250
-250 -195 195 -196 195 -54 0 -55 0 -252 -253 -253 -252 0 -46 c0 -63 16 -82
279 -344 l221 -220 -360 -360 -360 -361 0 -54 0 -55 253 -252 252 -253 55 0
54 0 361 360 360 360 220 -221 c262 -263 281 -279 344 -279 l46 0 252 253 253
252 0 54 0 54 -195 196 -195 197 250 249 250 250 250 -250 250 -250 -195 -195
-195 -196 0 -54 0 -55 253 -252 252 -253 46 0 c63 0 82 16 344 279 l220 221
360 -360 361 -360 54 0 55 0 252 253 253 252 0 55 0 54 -360 361 -360 360 221
220 c263 262 279 281 279 344 l0 46 -253 252 -252 253 -55 0 -54 0 -196 -195
-195 -195 -250 250 -250 250 863 863 862 862 0 388 0 389 -29 29 -29 29 -389
0 -388 0 -862 -862 -863 -863 -863 863 -862 862 -388 0 -389 0 -29 -29z m1543
-1028 l838 -838 -257 -257 -258 -258 -837 837 -838 838 0 251 c0 138 3 254 7
257 3 4 119 7 257 7 l251 0 837 -837z m3326 577 l2 -255 -1505 -1505 -1505
-1505 -257 258 -258 257 1505 1505 1505 1505 255 -2 255 -3 3 -255z m-1411
-3007 l-257 -258 -260 260 -260 260 257 257 258 258 260 -260 260 -260 -258
-257z m-2002 -153 l700 -700 -148 -147 -147 -148 -702 702 -703 703 145 145
c80 80 147 145 150 145 3 0 320 -315 705 -700z m3005 555 l145 -145 -703 -703
-702 -702 -147 148 -148 147 700 700 c385 385 702 700 705 700 3 0 70 -65 150
-145z m-3450 -1000 l145 -145 -310 -310 c-170 -171 -314 -310 -320 -310 -13 0
-285 272 -285 285 0 10 610 625 620 625 3 0 70 -65 150 -145z m3502 -162 c170
-170 308 -312 308 -318 0 -6 -64 -74 -143 -153 l-142 -142 -315 315 -315 315
145 145 c80 80 147 145 150 145 3 0 143 -138 312 -307z"/>
</g>
</svg>
